<?xml version="1.0" encoding="utf-8"?>
<!-- Generator: Adobe Illustrator 17.1.0, SVG Export Plug-In . SVG Version: 6.00 Build 0)  -->
<!DOCTYPE svg PUBLIC "-//W3C//DTD SVG 1.1//EN" "http://www.w3.org/Graphics/SVG/1.1/DTD/svg11.dtd">
<svg version="1.1" id="Layer_1" xmlns:ev="http://www.w3.org/2001/xml-events"
	 xmlns="http://www.w3.org/2000/svg" xmlns:xlink="http://www.w3.org/1999/xlink" x="0px" y="0px" viewBox="1.6 553 1190.7 94.1"
	 enable-background="new 1.6 553 1190.7 94.1" xml:space="preserve">
<rect y="561.8" fill="none" width="1200" height="64.8"/>
<g enable-background="new    ">
	<path fill="#333333" d="M10.6,625.8h-4v-62.2l4-2.7V625.8z"/>
	<path fill="#333333" d="M45.4,616.6c0,6.6-4.2,9.8-12.6,9.8c-8.3,0-12.4-3.3-12.4-9.8v-27c0-6.6,4.1-9.8,12.4-9.8
		c8.4,0,12.6,3.3,12.6,9.8v11.9h-21v15.3c0,5.1,2.8,7.7,8.5,7.7c5.7,0,8.5-2.6,8.5-7.7v-1.5h4V616.6z M41.4,599v-9.6
		c0-5.1-2.8-7.6-8.5-7.6c-5.7,0-8.5,2.5-8.5,7.6v9.6H41.4z"/>
	<path fill="#333333" d="M75.2,579.5l-10.7,46.3h-3.3l-10.7-46.3h4.1l8.2,36.1l8.3-36.1H75.2z"/>
	<path fill="#333333" d="M105.6,616.6c0,6.6-4.2,9.8-12.6,9.8c-8.3,0-12.4-3.3-12.4-9.8v-27c0-6.6,4.1-9.8,12.4-9.8
		c8.4,0,12.6,3.3,12.6,9.8v11.9h-21v15.3c0,5.1,2.8,7.7,8.5,7.7c5.7,0,8.5-2.6,8.5-7.7v-1.5h4V616.6z M101.6,599v-9.6
		c0-5.1-2.8-7.6-8.5-7.6c-5.7,0-8.5,2.5-8.5,7.6v9.6H101.6z"/>
	<path fill="#333333" d="M139.5,594.7h-4.3v-5.2c0-2.9-0.7-4.8-2-5.9c-1.3-1.1-3.5-1.6-6.5-1.6c-4.3,0-7,1.6-8,4.7
		c0,0.3,0,0.7-0.1,1.3c-0.1,0.6-0.1,1-0.1,1.3V626h-4.3v-46.5h4.3v1.9c2.2-1.1,5.4-1.6,9.7-1.6c3.8,0,6.5,0.7,8.3,2.1
		c1.9,1.6,2.9,4.2,2.9,7.9V594.7z"/>
	<path fill="#333333" d="M170.7,616.5c0,0.9,0,1.8,0,2.7v6.9h-4v-1.1c-2.1,1-4.9,1.5-8.5,1.5c-8.4,0-12.5-3.3-12.5-9.8v-9.8
		c0-6.5,4.2-9.8,12.5-9.8c3.8,0,6.6,0.5,8.5,1.6v-9.2c0-5.1-2.8-7.6-8.5-7.6c-5.7,0-8.5,2.5-8.5,7.6v2.5h-4v-2.3
		c0-6.6,4.1-9.8,12.4-9.8c8.4,0,12.6,3.3,12.6,9.8V616.5z M166.7,618.9v-14.6c-0.6-3.5-3.4-5.2-8.4-5.2c-5.7,0-8.5,2.5-8.5,7.4v10.3
		c0,2.9,0.7,4.8,2,6s3.5,1.7,6.5,1.7C163.1,624.4,166,622.6,166.7,618.9z"/>
	<path fill="#333333" d="M205.4,634.6c0,6.5-4.2,9.8-12.5,9.8c-8.4,0-12.7-3.3-12.7-9.8v-5h4.3v5.2c0,2.9,0.6,4.9,1.9,5.9
		c1.3,1,3.5,1.6,6.5,1.6c5.6,0,8.4-2.5,8.4-7.5v-10.1c-2.1,1.1-5,1.6-8.7,1.6c-8.3,0-12.4-3.3-12.4-9.8v-27c0-6.6,4.1-9.8,12.4-9.8
		c3.7,0,6.6,0.6,8.7,1.7v-1.7h4V634.6z M201.1,616.7v-27.4c0-5.1-2.8-7.6-8.4-7.6c-5.6,0-8.4,2.5-8.4,7.6v27.4
		c0,5.1,2.8,7.7,8.4,7.7C198.3,624.4,201.1,621.8,201.1,616.7z"/>
	<path fill="#333333" d="M239.8,616.6c0,6.6-4.2,9.8-12.6,9.8c-8.3,0-12.4-3.3-12.4-9.8v-27c0-6.6,4.1-9.8,12.4-9.8
		c8.4,0,12.6,3.3,12.6,9.8v11.9h-21v15.3c0,5.1,2.8,7.7,8.5,7.7c5.7,0,8.5-2.6,8.5-7.7v-1.5h4V616.6z M235.8,599v-9.6
		c0-5.1-2.8-7.6-8.5-7.6c-5.7,0-8.5,2.5-8.5,7.6v9.6H235.8z"/>
	<path fill="#333333" d="M287.4,581.8h-13.5v44h-4v-56.5h4v10.1h13.5V581.8z"/>
	<path fill="#333333" d="M317.8,626.4h-4v-37.2c0-5.1-2.9-7.7-8.6-7.7c-5.7,0-8.6,2.6-8.6,7.7v37.2h-4.3v-65.5h4v20.4
		c2.1-1.2,5-1.8,8.8-1.8c8.4,0,12.6,3.3,12.6,9.8V626.4z"/>
	<path fill="#333333" d="M352.2,616.6c0,6.6-4.2,9.8-12.6,9.8c-8.3,0-12.4-3.3-12.4-9.8v-27c0-6.6,4.1-9.8,12.4-9.8
		c8.4,0,12.6,3.3,12.6,9.8v11.9h-21v15.3c0,5.1,2.8,7.7,8.5,7.7c5.7,0,8.5-2.6,8.5-7.7v-1.5h4V616.6z M348.2,599v-9.6
		c0-5.1-2.8-7.6-8.5-7.6c-5.7,0-8.5,2.5-8.5,7.6v9.6H348.2z"/>
	<path fill="#333333" d="M407.1,626h-3.9v-1.2c-2.1,1.1-4.9,1.6-8.5,1.6c-8.4,0-12.7-3.3-12.7-9.8v-27c0-6.6,4.2-9.8,12.7-9.8
		c3.7,0,6.5,0.5,8.5,1.6v-19.6h3.9V626z M403.1,616.7v-27.4c0-5.1-2.7-7.6-8.2-7.6c-5.8,0-8.7,2.5-8.7,7.6v27.4
		c0,5.1,2.9,7.7,8.7,7.7C400.3,624.4,403.1,621.8,403.1,616.7z"/>
	<path fill="#333333" d="M420.9,572.1h-4v-2.5h4V572.1z M420.9,625.8h-4v-46.3h4V625.8z"/>
	<path fill="#333333" d="M455.9,634.6c0,6.5-4.2,9.8-12.5,9.8c-8.4,0-12.7-3.3-12.7-9.8v-5h4.3v5.2c0,2.9,0.6,4.9,1.9,5.9
		c1.3,1,3.5,1.6,6.5,1.6c5.6,0,8.4-2.5,8.4-7.5v-10.1c-2.1,1.1-5,1.6-8.7,1.6c-8.3,0-12.4-3.3-12.4-9.8v-27c0-6.6,4.1-9.8,12.4-9.8
		c3.7,0,6.6,0.6,8.7,1.7v-1.7h4V634.6z M451.6,616.7v-27.4c0-5.1-2.8-7.6-8.4-7.6c-5.6,0-8.4,2.5-8.4,7.6v27.4
		c0,5.1,2.8,7.7,8.4,7.7C448.8,624.4,451.6,621.8,451.6,616.7z"/>
	<path fill="#333333" d="M469.5,572.1h-4v-2.5h4V572.1z M469.5,625.8h-4v-46.3h4V625.8z"/>
	<path fill="#333333" d="M497,581.8h-13.5v44h-4v-56.5h4v10.1H497V581.8z"/>
	<path fill="#333333" d="M525.2,616.5c0,0.9,0,1.8,0,2.7v6.9h-4v-1.1c-2.1,1-4.9,1.5-8.5,1.5c-8.4,0-12.5-3.3-12.5-9.8v-9.8
		c0-6.5,4.2-9.8,12.5-9.8c3.8,0,6.6,0.5,8.5,1.6v-9.2c0-5.1-2.8-7.6-8.5-7.6c-5.7,0-8.5,2.5-8.5,7.6v2.5h-4v-2.3
		c0-6.6,4.1-9.8,12.4-9.8c8.4,0,12.6,3.3,12.6,9.8V616.5z M521.2,618.9v-14.6c-0.6-3.5-3.4-5.2-8.4-5.2c-5.7,0-8.5,2.5-8.5,7.4v10.3
		c0,2.9,0.7,4.8,2,6s3.5,1.7,6.5,1.7C517.7,624.4,520.5,622.6,521.2,618.9z"/>
	<path fill="#333333" d="M539,625.8h-4v-62.2l4-2.7V625.8z"/>
	<path fill="#333333" d="M595,616.5c0,0.9,0,1.8,0,2.7v6.9h-4v-1.1c-2.1,1-4.9,1.5-8.5,1.5c-8.4,0-12.5-3.3-12.5-9.8v-9.8
		c0-6.5,4.2-9.8,12.5-9.8c3.8,0,6.6,0.5,8.5,1.6v-9.2c0-5.1-2.8-7.6-8.5-7.6c-5.7,0-8.5,2.5-8.5,7.6v2.5h-4v-2.3
		c0-6.6,4.1-9.8,12.4-9.8c8.4,0,12.6,3.3,12.6,9.8V616.5z M591,618.9v-14.6c-0.6-3.5-3.4-5.2-8.4-5.2c-5.7,0-8.5,2.5-8.5,7.4v10.3
		c0,2.9,0.7,4.8,2,6s3.5,1.7,6.5,1.7C587.5,624.4,590.3,622.6,591,618.9z"/>
	<path fill="#333333" d="M629.6,626.4h-4v-37.2c0-5.1-2.9-7.7-8.6-7.7c-5.7,0-8.6,2.6-8.6,7.7v37.2h-4.3v-46.9h4v1.8
		c2.1-1.2,5-1.8,8.8-1.8c8.4,0,12.6,3.3,12.6,9.8V626.4z"/>
	<path fill="#333333" d="M663.4,626h-3.9v-1.2c-2.1,1.1-4.9,1.6-8.5,1.6c-8.5,0-12.7-3.3-12.7-9.8v-27c0-6.6,4.2-9.8,12.7-9.8
		c3.7,0,6.5,0.5,8.5,1.6v-19.6h3.9V626z M659.4,616.7v-27.4c0-5.1-2.7-7.6-8.2-7.6c-5.8,0-8.7,2.5-8.7,7.6v27.4
		c0,5.1,2.9,7.7,8.7,7.7C656.6,624.4,659.4,621.8,659.4,616.7z"/>
	<path fill="#333333" d="M740.3,616.6c0,6.7-4.2,10-12.6,9.8c-5.9-0.1-9.2-2.7-9.9-7.8c-0.1-0.2-0.3-1.3-0.5-3.4
		c-0.3,2.6-0.9,4.6-1.7,6.1c-1.8,3.3-4.8,5-9,5.1c-8.3,0.1-12.4-3.2-12.4-9.8v-37.1h4v37.2c0,5.1,2.8,7.7,8.4,7.7c3,0,5.3-2.3,7-6.8
		c1-2.6,1.4-5.9,1.4-9.7v-28.4h4V608c0,3.7,0.5,6.9,1.4,9.7c1.5,4.5,3.9,6.8,7.2,6.8c5.7,0,8.6-2.6,8.6-7.7v-37.2h4V616.6z"/>
	<path fill="#333333" d="M774.8,616.6c0,6.6-4.2,9.8-12.6,9.8c-8.3,0-12.4-3.3-12.4-9.8v-27c0-6.6,4.1-9.8,12.4-9.8
		c8.4,0,12.6,3.3,12.6,9.8v11.9h-21v15.3c0,5.1,2.8,7.7,8.5,7.7c5.7,0,8.5-2.6,8.5-7.7v-1.5h4V616.6z M770.8,599v-9.6
		c0-5.1-2.8-7.6-8.5-7.6c-5.7,0-8.5,2.5-8.5,7.6v9.6H770.8z"/>
	<path fill="#333333" d="M787.7,625.8h-4v-62.2l4-2.7V625.8z"/>
	<path fill="#333333" d="M822.5,616.6c0,6.6-4.2,9.8-12.6,9.8c-8.3,0-12.4-3.3-12.4-9.8v-27c0-6.6,4.1-9.8,12.4-9.8
		c8.4,0,12.6,3.3,12.6,9.8v4.6h-4v-4.8c0-5.1-2.8-7.6-8.5-7.6c-5.7,0-8.5,2.5-8.5,7.6v27.4c0,5.1,2.8,7.7,8.5,7.7
		c5.7,0,8.5-2.6,8.5-7.7v-5.2h4V616.6z"/>
	<path fill="#333333" d="M855.4,616.6c0,6.6-4.2,9.8-12.6,9.8c-8.3,0-12.4-3.3-12.4-9.8v-27c0-6.6,4.1-9.8,12.4-9.8
		c8.4,0,12.6,3.3,12.6,9.8V616.6z M851.4,616.7v-27.4c0-5.1-2.8-7.6-8.5-7.6c-5.7,0-8.5,2.5-8.5,7.6v27.4c0,5.1,2.8,7.7,8.5,7.7
		C848.6,624.4,851.4,621.8,851.4,616.7z"/>
	<path fill="#333333" d="M910.3,626.4h-4v-37.2c0-5.1-2.8-7.7-8.5-7.7c-5.7,0-8.5,2.6-8.5,7.7v37.2h-4.3v-37.2
		c0-5.1-2.8-7.7-8.5-7.7s-8.5,2.6-8.5,7.7v37.2h-4.3v-46.9h4v1.8c2-1.2,5-1.8,8.7-1.8c5.2,0,8.7,1.1,10.7,3.3
		c1.8-2.2,5.3-3.3,10.6-3.3c8.4,0,12.6,3.3,12.6,9.8V626.4z"/>
	<path fill="#333333" d="M943.8,616.6c0,6.6-4.2,9.8-12.6,9.8c-8.3,0-12.4-3.3-12.4-9.8v-27c0-6.6,4.1-9.8,12.4-9.8
		c8.4,0,12.6,3.3,12.6,9.8v11.9h-21v15.3c0,5.1,2.8,7.7,8.5,7.7c5.7,0,8.5-2.6,8.5-7.7v-1.5h4V616.6z M939.7,599v-9.6
		c0-5.1-2.8-7.6-8.5-7.6c-5.7,0-8.5,2.5-8.5,7.6v9.6H939.7z"/>
	<path fill="#333333" d="M998.8,594.7h-4.3v-5.2c0-2.9-0.7-4.8-2-5.9c-1.3-1.1-3.5-1.6-6.5-1.6c-4.3,0-7,1.6-8,4.7
		c0,0.3,0,0.7-0.1,1.3c-0.1,0.6-0.1,1-0.1,1.3V626h-4.3v-46.5h4.3v1.9c2.2-1.1,5.4-1.6,9.7-1.6c3.8,0,6.5,0.7,8.3,2.1
		c1.9,1.6,2.9,4.2,2.9,7.9V594.7z"/>
	<path fill="#333333" d="M1030,616.6c0,6.6-4.2,9.8-12.6,9.8c-8.3,0-12.4-3.3-12.4-9.8v-27c0-6.6,4.1-9.8,12.4-9.8
		c8.4,0,12.6,3.3,12.6,9.8v11.9h-21v15.3c0,5.1,2.8,7.7,8.5,7.7c5.7,0,8.5-2.6,8.5-7.7v-1.5h4V616.6z M1026,599v-9.6
		c0-5.1-2.8-7.6-8.5-7.6c-5.7,0-8.5,2.5-8.5,7.6v9.6H1026z"/>
	<path fill="#333333" d="M1063.7,616.5c0,0.9,0,1.8,0,2.7v6.9h-4v-1.1c-2.1,1-4.9,1.5-8.5,1.5c-8.4,0-12.5-3.3-12.5-9.8v-9.8
		c0-6.5,4.2-9.8,12.5-9.8c3.8,0,6.6,0.5,8.5,1.6v-9.2c0-5.1-2.8-7.6-8.5-7.6c-5.7,0-8.5,2.5-8.5,7.6v2.5h-4v-2.3
		c0-6.6,4.1-9.8,12.4-9.8c8.4,0,12.6,3.3,12.6,9.8V616.5z M1059.7,618.9v-14.6c-0.6-3.5-3.4-5.2-8.4-5.2c-5.7,0-8.5,2.5-8.5,7.4
		v10.3c0,2.9,0.7,4.8,2,6c1.4,1.1,3.5,1.7,6.5,1.7C1056.2,624.4,1059,622.6,1059.7,618.9z"/>
	<path fill="#333333" d="M1077.5,625.8h-4v-62.2l4-2.7V625.8z"/>
	<path fill="#333333" d="M1112.8,625.8h-4v-62.2l4-2.7V625.8z"/>
	<path fill="#333333" d="M1126.8,572.1h-4v-2.5h4V572.1z M1126.8,625.8h-4v-46.3h4V625.8z"/>
	<path fill="#333333" d="M1162.5,572.2h-4.3v-1.6c0-2.5-0.4-4.3-1.3-5.3c-1.2-1.5-3.7-2.2-7.2-2.2c-5.7,0-8.5,2.5-8.5,7.5v9.2h16.5
		v2.4h-16.5v44.2h-4v-55.6c0-6.6,4.2-9.9,12.6-9.9c8.5,0,12.8,3.3,12.8,9.9V572.2z"/>
	<path fill="#333333" d="M1188.4,616.6c0,6.6-4.2,9.8-12.6,9.8c-8.3,0-12.4-3.3-12.4-9.8v-27c0-6.6,4.1-9.8,12.4-9.8
		c8.4,0,12.6,3.3,12.6,9.8v11.9h-21v15.3c0,5.1,2.8,7.7,8.5,7.7c5.7,0,8.5-2.6,8.5-7.7v-1.5h4V616.6z M1184.4,599v-9.6
		c0-5.1-2.8-7.6-8.5-7.6c-5.7,0-8.5,2.5-8.5,7.6v9.6H1184.4z"/>
</g>
</svg>
