<?xml version="1.0" standalone="no"?>
<!DOCTYPE svg PUBLIC "-//W3C//DTD SVG 20010904//EN"
 "http://www.w3.org/TR/2001/REC-SVG-20010904/DTD/svg10.dtd">
<svg version="1.0" xmlns="http://www.w3.org/2000/svg"
 width="500.000000pt" height="500.000000pt" viewBox="0 0 500.000000 500.000000"
 preserveAspectRatio="xMidYMid meet">
<metadata>
Created by potrace 1.11, written by Peter Selinger 2001-2013
</metadata>
<g transform="translate(0.000000,500.000000) scale(0.100000,-0.100000)"
fill="#000000" stroke="none">
<path d="M2221 4958 c-1 -39 36 -237 55 -302 10 -31 -14 -8 -37 35 -11 22 -33
78 -49 124 -37 104 -69 179 -75 174 -2 -2 12 -69 31 -149 31 -129 34 -154 28
-225 l-7 -80 -46 175 c-36 137 -47 167 -49 138 -2 -21 -6 -38 -10 -38 -4 0
-25 33 -47 73 -34 61 -40 68 -43 47 -2 -14 -8 -29 -13 -34 -16 -17 -10 -34 10
-29 11 3 21 -2 24 -11 5 -11 1 -16 -13 -16 -26 0 -26 -17 -1 -25 67 -21 105
-87 132 -228 10 -56 40 -165 66 -242 26 -77 46 -152 45 -167 -3 -31 -36 -113
-50 -122 -5 -3 -15 58 -22 142 -13 136 -24 162 -30 67 -1 -20 -8 -2 -23 55
-11 47 -22 78 -24 69 -4 -18 44 -405 52 -418 2 -5 -2 -14 -9 -20 -30 -25 -66
162 -95 484 -12 127 -24 245 -27 264 l-5 34 -15 -29 c-9 -16 -12 -39 -9 -54 3
-14 8 -34 11 -45 11 -44 -26 32 -46 94 -15 48 -20 90 -20 177 0 63 -4 114 -8
114 -5 0 -14 -35 -21 -78 -14 -92 -4 -152 54 -331 43 -133 61 -224 70 -351 6
-87 5 -93 -9 -76 -30 37 -54 122 -82 284 -17 103 -31 159 -37 153 -6 -6 -5
-38 2 -86 26 -173 11 -164 -65 45 -55 153 -88 227 -118 265 -24 31 -19 11 14
-53 17 -33 30 -70 30 -82 l0 -23 -25 23 c-14 13 -25 29 -25 36 0 6 -9 22 -20
35 -17 21 -19 22 -20 6 0 -28 25 -70 79 -131 27 -31 51 -69 55 -84 3 -15 9
-38 13 -52 l7 -25 -30 19 c-49 31 -84 68 -131 139 -25 37 -47 66 -50 64 -13
-13 67 -137 149 -231 103 -118 168 -224 253 -413 60 -133 139 -356 133 -375
-2 -6 -35 38 -73 98 -39 62 -103 144 -146 189 -73 76 -79 84 -99 160 -12 44
-41 116 -65 160 -23 44 -57 125 -75 180 -27 83 -53 132 -107 204 -27 36 140
-418 188 -511 25 -50 -12 2 -67 92 -71 117 -129 240 -145 305 -19 82 -28 96
-28 49 -1 -22 -4 -44 -7 -47 -4 -4 -29 25 -57 64 -27 38 -51 68 -54 65 -3 -3
13 -38 35 -78 46 -83 84 -176 79 -191 -1 -5 -31 38 -66 97 -34 60 -65 106 -67
103 -3 -3 15 -45 39 -93 48 -96 126 -284 181 -438 l35 -96 -50 26 c-28 14 -53
23 -56 21 -2 -3 16 -21 41 -41 71 -59 113 -130 155 -264 42 -131 38 -139 -29
-56 -98 122 -188 319 -260 564 -82 282 -111 370 -131 393 -10 12 -18 20 -19
17 0 -3 18 -60 40 -125 49 -145 82 -271 78 -296 -2 -10 -34 48 -71 129 -91
195 -134 254 -87 117 11 -32 20 -60 20 -62 0 -10 -59 29 -84 56 -36 37 -55 41
-32 6 16 -25 16 -25 -9 -13 -14 6 -28 8 -32 5 -14 -14 32 -47 94 -68 38 -12
69 -30 78 -42 7 -12 32 -71 54 -130 79 -208 170 -363 411 -702 121 -171 187
-272 225 -344 16 -32 16 -32 -4 -21 -32 17 -87 74 -223 230 l-126 146 -47 149
c-26 83 -49 152 -51 154 -13 14 -12 -17 4 -97 14 -64 16 -89 7 -86 -7 3 1 -21
16 -53 37 -79 58 -190 65 -341 5 -124 5 -126 -12 -97 -43 74 -104 234 -225
593 -103 305 -138 396 -163 427 -18 22 -52 73 -75 113 -47 81 -64 90 -32 16
l21 -47 -55 53 c-31 28 -59 50 -61 47 -14 -14 15 -54 100 -141 l92 -95 38
-123 c73 -231 68 -212 50 -197 -29 24 -160 204 -214 294 -43 72 -190 296 -206
314 -2 2 -7 2 -10 -2 -9 -8 112 -222 171 -302 82 -111 160 -231 139 -214 -218
181 -378 309 -382 304 -3 -3 27 -38 66 -78 50 -50 69 -76 62 -83 -7 -7 12 -25
59 -58 79 -53 270 -247 349 -352 56 -76 106 -171 116 -221 3 -18 3 -33 1 -33
-11 0 -95 56 -171 115 -102 80 -213 198 -310 331 -76 103 -107 131 -64 57 22
-37 22 -37 -26 12 -27 28 -77 81 -112 119 -34 38 -65 66 -68 63 -16 -15 70
-131 172 -233 84 -85 104 -109 82 -102 -31 11 -89 50 -157 106 -38 31 -41 32
-41 12 0 -32 48 -70 204 -161 137 -80 146 -88 349 -288 200 -197 262 -272 255
-306 -2 -11 -39 12 -132 81 -70 52 -130 93 -133 90 -10 -10 62 -90 132 -145
199 -159 224 -184 294 -291 138 -214 145 -241 40 -159 -43 35 -340 311 -497
464 -39 37 -46 51 -68 140 -14 54 -37 121 -51 149 -41 82 -96 171 -100 160 -2
-6 21 -64 51 -130 53 -117 92 -231 83 -240 -3 -3 -27 29 -53 71 -54 84 -119
163 -128 154 -3 -3 5 -21 17 -40 13 -19 34 -51 47 -73 l23 -38 -24 12 c-88 47
-147 128 -184 255 -15 50 -32 95 -37 100 -17 16 0 -89 23 -147 31 -79 2 -45
-82 96 -41 69 -75 121 -77 116 -2 -4 15 -45 38 -89 22 -45 38 -81 35 -81 -3 0
-20 7 -36 16 -71 36 -41 -1 117 -145 234 -212 311 -307 342 -423 l10 -38 -26
14 c-32 17 -57 49 -100 131 -35 64 -145 194 -157 183 -3 -3 33 -68 80 -145 60
-94 112 -164 166 -218 73 -74 84 -92 159 -248 44 -92 80 -170 80 -173 0 -16
-138 95 -226 181 -142 140 -124 109 -361 623 -14 29 -27 51 -30 48 -6 -6 41
-130 104 -274 24 -57 43 -106 40 -108 -2 -3 -40 39 -83 93 -168 210 -426 493
-439 481 -6 -5 125 -165 264 -322 l26 -29 -35 20 c-19 12 -87 51 -150 88 -63
37 -130 76 -147 87 -18 11 -33 16 -33 11 0 -5 86 -69 191 -143 177 -125 259
-195 259 -221 0 -30 -194 59 -262 120 -44 39 -47 41 -57 22 -10 -17 -1 -27 76
-82 72 -52 102 -67 172 -86 85 -23 86 -23 178 -115 87 -87 92 -93 70 -101 -35
-14 -137 -10 -206 8 -35 9 -108 36 -162 60 -54 24 -125 53 -158 65 -61 20
-123 27 -105 11 5 -4 101 -47 214 -94 218 -91 339 -124 417 -113 42 5 45 4
134 -72 50 -42 134 -110 188 -150 105 -81 251 -219 251 -239 0 -19 -79 8 -136
47 -27 19 -82 67 -123 108 -41 41 -71 66 -66 56 23 -57 18 -57 -46 -9 -35 27
-88 72 -116 99 -63 58 -70 48 -12 -18 22 -25 35 -46 27 -46 -16 0 -75 35 -105
63 -33 30 -38 15 -8 -22 15 -17 63 -48 111 -71 47 -22 126 -71 177 -109 51
-38 130 -87 177 -109 115 -54 173 -112 211 -211 16 -44 17 -51 3 -51 -25 0
-72 28 -181 106 -74 53 -131 85 -200 111 -92 35 -103 43 -183 123 -47 47 -146
154 -219 238 -73 84 -136 151 -138 148 -3 -3 5 -20 18 -38 22 -30 18 -28 -60
25 -135 93 -126 78 39 -72 69 -63 131 -119 138 -126 11 -10 3 -11 -40 -8 l-53
4 55 -23 c101 -43 230 -143 230 -178 0 -28 -137 13 -270 81 -95 49 -93 47
-170 149 -35 47 -87 111 -116 143 -72 78 -139 173 -170 242 -19 40 -29 53 -35
44 -6 -11 -14 -9 -39 10 -17 12 -33 21 -35 19 -2 -2 23 -46 56 -97 33 -51 59
-94 57 -96 -2 -1 -65 27 -141 63 -76 35 -140 62 -143 59 -3 -3 64 -44 148 -92
184 -105 240 -145 267 -189 43 -70 29 -71 -115 -11 -122 50 -147 56 -120 26
23 -25 93 -55 191 -81 91 -24 141 -58 169 -114 10 -20 16 -39 14 -41 -2 -2
-116 27 -253 65 -138 39 -257 70 -265 70 -8 0 20 -19 63 -42 91 -50 86 -56
-42 -57 -46 -1 -82 -3 -80 -6 3 -2 73 -10 155 -16 269 -19 487 -69 602 -136
l46 -27 -59 -20 c-45 -14 -104 -21 -230 -26 -93 -3 -162 -7 -152 -8 41 -4 10
-20 -75 -39 l-93 -20 41 -11 c32 -10 52 -9 98 3 31 8 86 15 122 15 38 0 132
15 227 36 133 29 177 35 249 32 l87 -3 183 -92 c268 -135 403 -218 450 -277
21 -27 35 -52 31 -56 -4 -4 -119 -21 -254 -40 l-247 -32 -56 25 c-36 17 -88
56 -148 114 -133 127 -188 173 -208 173 -12 0 20 -38 87 -105 58 -58 104 -108
101 -110 -10 -11 -159 36 -258 80 -262 117 -350 149 -350 126 0 -6 5 -11 12
-11 21 0 213 -100 248 -130 42 -36 35 -37 -90 -15 -100 18 -103 18 -96 6 6
-10 -21 -16 -111 -27 -35 -3 -63 -10 -63 -13 0 -4 34 -13 76 -19 58 -9 98 -9
171 0 157 19 389 -21 542 -94 l65 -31 -34 -29 c-19 -16 -56 -39 -82 -52 -44
-22 -55 -23 -190 -18 -79 2 -141 2 -138 -1 3 -3 68 -13 144 -21 76 -8 141 -17
143 -20 8 -7 -80 -54 -122 -65 -22 -5 -72 -17 -111 -26 -66 -15 -142 -50 -132
-61 3 -2 25 3 49 11 24 9 73 18 109 21 l65 5 -59 -55 c-33 -31 -55 -56 -49
-56 6 0 105 66 219 146 115 81 226 155 248 164 38 18 39 18 189 -21 151 -40
229 -68 241 -87 8 -13 -27 -56 -68 -81 -21 -13 -99 -34 -199 -55 -141 -28
-171 -37 -204 -63 -36 -29 -45 -31 -188 -43 -192 -16 -221 -31 -46 -23 96 4
132 3 127 -5 -3 -6 -33 -28 -66 -50 -51 -34 -126 -68 -274 -122 -50 -18 -23
-20 64 -5 46 8 85 13 87 11 2 -1 -28 -39 -67 -84 -38 -44 -70 -83 -70 -87 0
-3 53 43 118 101 110 101 277 222 289 211 2 -3 -14 -31 -37 -61 -24 -31 -41
-58 -38 -61 2 -2 51 40 108 93 58 54 122 106 143 115 37 18 158 42 176 35 12
-4 -56 -118 -104 -175 -43 -52 -68 -65 -163 -88 -69 -16 -125 -51 -261 -162
-2 -1 -2 -5 0 -8 3 -2 43 19 89 47 90 54 149 82 157 75 2 -3 -3 -19 -11 -36
-24 -45 -20 -48 17 -14 46 43 129 104 135 99 12 -13 -13 -104 -48 -174 -52
-103 -118 -184 -187 -229 -36 -24 -51 -39 -40 -41 24 -5 57 16 164 104 98 81
98 82 116 150 26 96 64 190 101 249 l31 50 5 -70 c6 -77 11 -72 30 25 23 128
125 298 212 357 82 57 153 68 188 31 33 -35 220 -319 220 -334 0 -28 -124 -98
-318 -179 -120 -50 -142 -65 -142 -95 0 -17 6 -18 56 -13 l56 6 -15 -29 c-30
-57 -90 -96 -167 -109 -25 -4 -68 -16 -96 -26 -52 -20 -134 -82 -134 -102 0
-6 10 -1 23 10 12 11 38 29 57 39 34 17 252 84 258 79 5 -4 -74 -166 -98 -202
-12 -18 -18 -33 -12 -33 16 0 85 98 162 230 113 192 212 277 362 310 71 16 83
8 128 -84 50 -102 55 -171 37 -493 -17 -302 -28 -356 -92 -484 l-25 -49 365 0
365 0 -40 51 c-95 120 -112 329 -50 627 39 192 126 416 165 429 14 4 83 -120
129 -232 62 -152 143 -309 172 -335 33 -30 35 -38 -59 175 -78 177 -101 245
-76 229 8 -4 63 -43 122 -86 104 -74 179 -110 195 -93 4 4 2 10 -5 12 -24 9
-170 124 -238 188 -59 56 -66 65 -42 60 15 -3 27 -2 27 2 -1 5 -39 36 -86 71
-59 44 -83 67 -76 75 161 213 234 287 282 287 94 0 173 -107 200 -272 5 -35
10 -116 10 -180 0 -90 3 -116 13 -113 6 3 50 -36 96 -87 139 -154 183 -199
187 -195 3 2 -42 77 -100 166 -121 186 -146 245 -153 356 -3 44 -4 78 -1 75 3
-3 84 -109 180 -235 168 -220 203 -263 213 -254 5 6 -67 154 -95 196 -12 18
-18 33 -12 33 33 0 109 -40 190 -101 51 -39 97 -68 100 -64 16 16 -118 123
-216 174 -56 28 -121 70 -145 93 l-42 41 35 8 c143 31 234 19 289 -39 30 -32
33 -33 26 -12 -5 14 -8 34 -7 45 1 11 -11 30 -26 42 l-27 23 60 0 c33 0 66 4
73 9 26 16 -99 21 -211 9 -168 -19 -234 -16 -284 10 -24 12 -49 32 -56 45 -8
12 -35 59 -62 104 -27 45 -75 111 -107 147 -32 35 -58 67 -58 70 0 11 50 38
85 46 58 13 369 -7 463 -30 92 -22 173 -59 216 -99 l29 -26 -7 28 c-3 15 -5
27 -3 27 2 0 93 -43 203 -95 205 -98 245 -112 290 -101 39 10 21 21 -75 46
-87 24 -236 104 -224 123 3 6 45 7 107 4 101 -5 308 -51 440 -96 69 -24 82
-21 35 9 -77 47 -251 88 -484 115 -142 17 -295 46 -362 69 l-37 13 89 11 c50
6 131 9 180 6 64 -4 86 -3 75 5 -8 6 -34 13 -58 17 -24 3 -50 13 -58 21 -11
11 -21 12 -47 4 -17 -6 -75 -15 -127 -20 -80 -8 -132 -5 -333 17 -133 15 -238
31 -238 37 0 6 50 80 111 166 l110 155 244 -47 c191 -36 285 -49 433 -59 212
-13 292 -28 375 -70 63 -31 73 -27 33 10 l-26 24 33 17 33 17 -35 6 c-36 6
-314 36 -333 36 -18 0 54 50 108 76 55 26 120 30 219 14 69 -11 79 -8 40 13
l-29 15 40 10 c22 6 52 14 68 18 29 7 37 24 11 24 -38 0 -375 -61 -415 -75
-24 -9 -60 -26 -79 -39 -64 -42 -105 -50 -182 -36 -68 12 -69 13 -52 31 30 33
75 56 191 98 62 22 134 54 160 73 l48 33 190 5 c259 7 190 25 -97 25 -174 0
-203 2 -185 13 20 12 18 12 -18 7 -22 -3 -49 -9 -60 -12 -11 -3 12 24 50 60
79 73 85 96 10 37 -83 -65 -152 -95 -215 -93 -181 5 -428 21 -442 27 -24 11
-24 68 -1 108 36 60 236 165 336 175 29 3 85 0 126 -6 61 -10 75 -9 85 2 38
48 172 33 350 -39 33 -13 62 -22 64 -19 3 3 -6 18 -21 33 -18 19 -25 34 -21
49 6 20 4 21 -38 12 -42 -10 -123 -4 -163 11 -19 7 -18 8 5 14 14 3 77 15 140
26 111 20 240 69 240 91 0 12 2 12 -63 -10 -51 -18 -57 -18 -57 -4 0 9 7 25
17 35 27 30 6 33 -28 4 -66 -56 -196 -106 -273 -106 l-40 0 59 60 c33 33 55
60 50 60 -6 0 -44 -29 -85 -65 -41 -36 -93 -74 -116 -85 -41 -20 -120 -26
-181 -14 l-30 6 90 86 c49 48 125 128 169 179 83 97 175 176 244 211 34 17
131 40 179 42 6 1 -2 8 -17 16 -16 8 -28 23 -28 34 0 18 -7 16 -63 -20 -35
-22 -81 -47 -102 -56 l-38 -16 67 73 c63 68 114 145 103 156 -5 4 -55 -48
-178 -184 -41 -46 -76 -78 -77 -72 -2 5 10 45 27 87 27 67 39 84 87 122 56 45
58 60 5 42 l-29 -10 44 131 c24 72 43 131 41 133 -1 1 -11 4 -22 8 -19 5 -24
-4 -54 -101 -47 -154 -91 -223 -153 -238 -30 -8 -39 10 -16 33 7 7 8 12 4 12
-5 0 -24 -16 -43 -35 -28 -29 -177 -115 -198 -115 -15 0 1 32 45 90 35 45 48
71 44 85 -4 17 -3 17 6 5 9 -13 13 -11 28 10 9 14 31 40 49 59 18 18 33 35 33
37 0 1 -21 -3 -47 -11 -26 -8 -49 -13 -50 -11 -2 2 5 40 15 85 11 44 17 81 13
81 -4 0 -35 -80 -69 -179 -86 -243 -145 -325 -268 -371 -29 -10 -113 -49 -186
-86 -73 -36 -128 -62 -123 -56 6 5 82 72 170 150 163 143 327 302 311 302 -5
0 -43 -28 -83 -61 -41 -34 -77 -59 -80 -56 -17 18 40 159 100 247 42 61 185
208 269 277 38 30 67 58 64 60 -2 3 -33 -14 -68 -38 -35 -23 -56 -35 -48 -25
8 10 41 36 74 59 33 22 55 42 48 45 -12 4 -5 19 46 100 30 47 -6 19 -68 -54
-63 -73 -102 -104 -134 -104 -13 0 -12 7 4 46 30 70 24 72 -23 8 -49 -66 -157
-169 -206 -198 l-33 -18 7 23 c4 13 19 46 32 72 13 27 22 51 20 54 -3 2 -33
-36 -67 -86 -76 -111 -189 -220 -271 -262 l-62 -31 24 39 c119 198 189 285
376 469 90 88 163 167 163 174 0 7 -33 -19 -74 -58 -70 -68 -97 -88 -80 -59 4
6 18 29 31 50 39 62 21 64 -26 3 -46 -59 -61 -63 -61 -15 0 47 -15 26 -35 -48
-15 -56 -32 -87 -98 -173 -44 -58 -85 -109 -90 -115 -15 -17 2 52 44 173 37
107 50 168 31 147 -5 -6 -39 -100 -77 -210 -72 -212 -112 -287 -233 -431 -27
-33 -95 -129 -152 -214 -57 -85 -120 -175 -140 -200 -37 -45 -120 -101 -120
-81 0 5 56 126 124 268 84 176 155 307 223 413 57 90 126 214 163 295 61 134
67 143 136 205 53 47 88 91 130 160 31 52 65 110 76 128 36 59 1 33 -41 -31
-87 -134 -152 -209 -168 -194 -6 7 67 162 100 210 21 31 24 43 16 63 -5 14 -6
44 -3 67 10 62 -7 37 -46 -68 -43 -116 -123 -291 -128 -277 -3 9 50 373 63
430 3 12 2 22 -2 22 -5 0 -23 -52 -42 -115 -19 -63 -38 -115 -41 -115 -4 0
-11 46 -16 103 l-8 102 -8 -80 c-4 -44 -7 -145 -6 -225 1 -109 -3 -161 -16
-210 -11 -39 -98 -223 -219 -462 -111 -218 -202 -396 -203 -395 -2 1 11 41 27
87 43 120 71 227 67 253 -2 12 -42 -92 -90 -235 -115 -339 -153 -422 -227
-486 -52 -45 -171 -120 -171 -108 0 3 73 139 162 303 89 164 185 356 215 426
46 112 77 164 238 402 102 151 185 279 185 286 0 7 -63 -67 -140 -165 -77 -97
-142 -176 -144 -176 -8 0 55 333 68 358 8 15 33 54 55 87 41 61 46 82 12 51
-16 -15 -13 2 20 103 22 66 42 149 45 183 7 85 -8 58 -35 -62 -18 -82 -78
-236 -88 -226 -2 1 11 76 28 165 16 90 28 165 25 168 -11 12 -59 -133 -96
-292 -12 -49 -39 -199 -60 -333 -36 -217 -45 -256 -92 -380 -62 -163 -214
-472 -294 -595 -31 -48 -58 -86 -60 -84 -2 2 12 48 31 102 20 54 33 100 31
102 -7 7 -63 -83 -125 -197 l-51 -95 0 56 c0 31 11 93 25 140 25 82 27 85 118
174 52 49 109 115 129 145 39 61 92 189 83 199 -4 3 -10 -1 -15 -9 -5 -8 -40
-57 -78 -108 -48 -63 -71 -88 -74 -76 -2 13 -20 -2 -67 -54 -34 -40 -67 -72
-72 -72 -9 0 -7 21 13 155 17 116 52 178 108 190 23 5 29 14 38 57 7 28 31 89
53 137 35 72 299 664 317 710 4 10 1 13 -10 8 -15 -5 -16 5 -11 91 3 53 3 95
0 92 -3 -3 -15 -63 -26 -133 -12 -70 -29 -144 -38 -165 l-16 -37 -8 50 c-4 28
-8 118 -9 200 l-2 150 -17 -88 c-13 -70 -18 -86 -28 -76 -19 19 -17 -24 7
-161 12 -68 18 -131 14 -155 -11 -71 -62 -187 -139 -315 -73 -122 -75 -124
-75 -85 0 58 -14 32 -40 -71 -17 -71 -28 -98 -51 -120 -57 -55 -45 -2 49 209
92 208 132 319 131 366 0 25 -1 24 -16 -9 -59 -128 -165 -339 -182 -360 l-21
-25 0 24 c0 13 23 74 51 134 53 116 77 215 133 542 33 189 39 255 28 285 -8
22 -10 19 -16 -30 -10 -74 -25 -120 -39 -117 -8 1 -14 -34 -19 -113 -10 -147
-39 -294 -82 -414 -62 -169 -63 -169 -71 -24 -4 69 -4 159 0 199 10 112 32
255 42 275 5 11 6 66 3 124 l-5 105 -13 -90 c-13 -90 -32 -178 -37 -173 -2 2
-8 71 -14 153 -6 83 -14 166 -17 185 l-6 35 -12 -35 c-9 -27 -10 -139 -3 -465
4 -236 6 -556 3 -710 -6 -303 -14 -378 -79 -690 -19 -93 -38 -204 -42 -245
-17 -199 -59 -396 -113 -535 l-27 -70 -3 674 -2 674 65 202 c36 112 65 209 65
216 0 7 -15 -8 -32 -34 -18 -26 -36 -47 -40 -47 -14 0 -8 59 11 117 11 34 26
129 36 228 18 188 45 339 75 418 23 60 25 76 8 59 -7 -7 -15 -12 -20 -12 -4 0
-9 64 -10 143 l-3 142 -17 -39 c-15 -31 -18 -68 -18 -195 -1 -104 -5 -163 -13
-178 -12 -21 -124 -112 -139 -113 -18 0 -5 75 37 210 24 80 44 161 44 180 0
44 -8 28 -42 -85 l-24 -80 -8 153 c-4 84 -9 151 -11 149 -2 -2 -10 -58 -18
-126 -7 -67 -16 -124 -19 -127 -2 -3 -10 48 -17 113 -7 65 -16 124 -20 131 -4
8 -10 -20 -13 -62 -6 -67 -3 -91 24 -189 l31 -111 -12 -161 c-11 -164 -33
-327 -49 -380 -5 -16 -10 -28 -10 -25 -1 3 -6 106 -11 230 -10 245 -26 396
-66 648 -27 163 -48 223 -32 90 14 -116 7 -134 -21 -58 -13 36 -28 69 -33 75
-20 22 -5 -52 31 -152 41 -115 62 -218 60 -305 0 -46 -10 -20 -75 212 -87 309
-92 323 -93 258z m121 -528 l42 -125 3 -190 2 -190 -24 50 c-47 98 -77 206
-82 303 -4 67 -9 92 -19 92 -7 0 -17 -7 -22 -17 -16 -27 -32 74 -32 198 l0
111 45 -54 c35 -42 53 -79 87 -178z m332 -178 c-9 -59 -20 -113 -24 -120 -3
-7 -12 38 -20 99 l-13 112 29 23 c43 35 49 13 28 -114z m-1030 -45 c32 -55
114 -174 184 -265 69 -92 137 -182 151 -201 l26 -35 -65 37 c-36 21 -70 41
-75 45 -6 4 -47 66 -90 137 -77 126 -99 143 -76 59 6 -21 9 -39 8 -40 -4 -5
-107 223 -128 282 -11 29 -19 68 -19 86 0 39 -1 40 84 -105z m948 -169 c2
-211 -5 -305 -34 -448 l-10 -55 -19 46 c-9 26 -24 79 -33 119 -14 70 -14 76
10 165 14 55 28 144 33 221 5 71 15 147 21 168 22 73 31 15 32 -216z m-278
-128 c68 -148 163 -380 176 -428 41 -157 61 -489 43 -722 l-8 -105 -19 140
c-10 77 -24 163 -31 190 -8 28 -16 100 -20 160 -6 114 -27 216 -72 364 -36
120 -95 283 -100 277 -2 -2 12 -117 32 -256 20 -139 35 -254 33 -255 -2 -2
-41 94 -88 213 -77 199 -84 224 -88 302 -4 90 7 154 49 265 l22 59 14 -54 c7
-30 33 -97 57 -150z m-475 -172 c114 -62 217 -134 244 -170 39 -52 230 -433
275 -549 l41 -106 -25 -149 c-14 -81 -26 -150 -28 -151 -5 -5 -481 890 -527
991 -46 101 -73 176 -62 176 4 0 40 -19 82 -42z m2442 -77 c-6 -10 -43 -55
-83 -98 -48 -52 -95 -119 -137 -194 -135 -241 -157 -274 -234 -353 -42 -43
-80 -77 -83 -74 -5 6 220 427 259 482 51 74 116 141 189 196 83 63 106 73 89
41z m-426 -384 c-30 -70 -72 -151 -94 -180 -22 -29 -58 -89 -81 -135 -54 -107
-114 -171 -334 -355 -157 -131 -177 -146 -173 -121 3 16 9 56 12 89 12 117 17
125 102 179 l78 48 153 228 154 228 116 74 c64 41 118 74 119 73 2 -1 -22 -59
-52 -128z m-2049 -64 c158 -176 303 -352 304 -367 0 -4 -8 -5 -17 -1 -10 3
-80 15 -155 25 -89 11 -148 24 -170 37 -42 24 -85 102 -103 190 -13 60 -21
283 -11 283 2 0 71 -75 152 -167z m2744 -27 c0 -2 -9 -32 -20 -67 -34 -111
-128 -253 -258 -391 -57 -61 -143 -128 -163 -128 -4 0 0 19 10 43 51 115 36
114 -67 -7 -71 -82 -145 -146 -157 -134 -6 6 44 268 65 338 18 62 22 67 82
106 35 23 83 52 108 64 25 12 79 43 120 68 76 46 280 125 280 108z m-3059
-364 c136 -128 244 -220 324 -275 85 -59 140 -106 188 -162 197 -227 335 -536
309 -690 l-7 -39 -110 139 c-60 77 -177 208 -258 290 -129 129 -165 174 -268
326 -65 97 -135 191 -154 208 -34 29 -55 39 -55 24 0 -18 77 -143 167 -268 54
-77 102 -145 106 -152 5 -8 -6 -7 -38 3 -58 20 -119 88 -195 216 -65 110 -270
564 -270 598 l0 22 29 -25 c16 -13 120 -110 232 -215z m2384 -118 c-27 -120
-117 -409 -129 -416 -25 -17 -184 6 -208 30 -6 6 13 44 49 98 32 49 84 149
117 221 l58 132 62 35 61 35 3 -33 c2 -19 -4 -64 -13 -102z m-1772 39 c63 -35
122 -101 160 -181 28 -61 39 -111 68 -337 7 -49 14 -106 17 -125 4 -33 -113
124 -480 646 l-57 81 121 -29 c66 -15 143 -41 171 -55z m1557 -2 c0 -5 -14
-49 -31 -98 -36 -102 -88 -205 -127 -252 -27 -32 -31 -33 -118 -38 l-90 -6
-76 -101 c-88 -117 -162 -236 -182 -294 -8 -23 -20 -75 -25 -117 -16 -114 -30
-133 -187 -254 -76 -60 -140 -108 -141 -107 0 0 5 42 12 91 15 95 39 173 74
242 50 99 265 361 539 657 192 207 281 286 322 286 17 0 30 -4 30 -9z m-555
-209 c-9 -31 -36 -93 -59 -137 -42 -79 -264 -390 -273 -381 -9 9 69 343 92
393 29 63 92 133 165 183 31 21 62 46 70 56 14 16 15 14 18 -20 2 -20 -4 -62
-13 -94z m275 -270 c0 -4 -46 -46 -102 -92 -92 -75 -99 -80 -68 -40 72 93 170
168 170 132z m250 -25 c110 -15 116 -22 80 -105 -20 -47 -25 -50 -65 -56 -61
-10 -171 -66 -380 -194 l-180 -111 -3 34 c-7 75 11 105 135 221 129 121 267
224 298 223 11 0 63 -6 115 -12z m605 -32 c94 -3 194 -8 223 -11 l54 -6 -22
-23 c-12 -13 -42 -27 -73 -33 -34 -7 -90 -33 -159 -76 l-106 -65 -186 32 -186
32 0 38 c0 45 21 89 52 112 19 14 40 16 128 11 58 -3 182 -8 275 -11z m-2502
-91 c91 -46 169 -105 252 -189 94 -95 185 -222 185 -259 l0 -26 -112 0 -113 1
-87 142 c-124 203 -203 357 -183 357 3 0 29 -12 58 -26z m1859 -181 c-57 -71
-206 -211 -391 -367 -102 -86 -186 -154 -188 -152 -2 2 10 55 27 117 35 130
46 145 155 217 73 49 417 233 424 226 2 -1 -10 -20 -27 -41z m-1873 -214 c55
-12 115 -64 90 -80 -16 -10 -125 -23 -164 -20 -57 5 -272 65 -255 72 4 1 236
34 267 38 7 0 35 -4 62 -10z m475 -160 c7 -6 37 -238 32 -246 -2 -3 -211 238
-214 247 -2 5 7 10 20 13 32 6 151 -4 162 -14z m677 -136 c-18 -88 -30 -97
-76 -58 l-30 25 57 55 c31 30 58 55 61 55 3 0 -3 -35 -12 -77z m-114 -148 c24
-25 43 -55 43 -66 0 -22 -68 -158 -99 -198 -18 -24 -18 -23 -26 132 -4 85 -4
160 0 166 13 21 39 10 82 -34z"/>
</g>
</svg>
